<svg width="44" height="44" viewBox="0 0 44 44" fill="none" xmlns="http://www.w3.org/2000/svg">
<path d="M42 22C42 10.9583 33.0417 2 22 2C10.9583 2 2 10.9583 2 22C2 33.0417 10.9583 42 22 42C33.0417 42 42 33.0417 42 22Z" fill="white" fill-opacity="0.8" stroke="#14499E" stroke-width="4" stroke-miterlimit="10"/>
<path d="M17.7401 30.3371L29.943 22.9885C30.1131 22.8852 30.2537 22.74 30.3512 22.5669C30.4488 22.3938 30.5 22.1986 30.5 22C30.5 21.8015 30.4488 21.6062 30.3512 21.4331C30.2537 21.26 30.1131 21.1148 29.943 21.0115L17.7401 13.6629C17.5652 13.5584 17.3655 13.5022 17.1617 13.5001C16.9578 13.4979 16.757 13.5498 16.5799 13.6506C16.4027 13.7513 16.2557 13.8971 16.1538 14.0732C16.0519 14.2493 15.9988 14.4492 16 14.6524V29.3476C15.9988 29.5508 16.0519 29.7507 16.1538 29.9268C16.2557 30.1029 16.4027 30.2487 16.5799 30.3495C16.757 30.4502 16.9578 30.5021 17.1617 30.4999C17.3655 30.4978 17.5652 30.4416 17.7401 30.3371Z" fill="#14499E"/>
</svg>
