<?xml version="1.0" encoding="UTF-8"?>
<svg width="692px" height="207px" viewBox="0 0 692 207" version="1.1" xmlns="http://www.w3.org/2000/svg" xmlns:xlink="http://www.w3.org/1999/xlink">
    <!-- Generator: Sketch Beta 62 (91388) - https://sketch.com -->
    <title>Neon_Logo_Dark.ea1e5011</title>
    <desc>Created with Sketch Beta.</desc>
    <defs>
        <linearGradient x1="103.426811%" y1="-6.52466824%" x2="-5.25042799%" y2="100%" id="linearGradient-1">
            <stop stop-color="#6AD8FF" offset="0%"></stop>
            <stop stop-color="#66ED87" offset="100%"></stop>
        </linearGradient>
    </defs>
    <g id="Main-Page" stroke="none" stroke-width="1" fill="none" fill-rule="evenodd">
        <g id="Neon_Logo_Dark.ea1e5011" transform="translate(0.000000, -1.000000)" fill-rule="nonzero">
            <path d="M676.245693,52.784382 L691.84645,52.784382 L691.84645,162.514987 L616.457074,83.800878 L616.457074,156.21819 L600.856317,156.21819 L600.856317,45.750854 L676.245693,124.665973 L676.245693,52.784382 Z M522.883034,49.659773 C552.874566,49.659773 577.188487,73.987594 577.188487,103.99627 C577.188487,134.005868 552.874566,158.332767 522.883034,158.332767 C492.89058,158.332767 468.576659,134.005868 468.576659,103.99627 C468.576659,73.987594 492.89058,49.659773 522.883034,49.659773 Z M522.883034,142.290642 C544.020406,142.290642 561.154606,125.145725 561.154606,103.99627 C561.154606,82.847737 544.020406,65.70282 522.883034,65.70282 C501.745662,65.70282 484.61054,82.847737 484.61054,103.99627 C484.61054,125.145725 501.745662,142.290642 522.883034,142.290642 Z M454.437004,140.531614 C457.19241,145.688736 460.520092,150.488096 464.323289,154.866993 C464.51497,155.130704 464.692827,155.403636 464.888193,155.664581 L464.888193,156.218743 L386.499203,156.218743 L386.499203,156.132069 L386.499203,140.531614 L386.499203,112.762639 L386.499203,97.076432 L386.499203,68.471142 L386.499203,52.784014 L402.17737,52.784014 L464.618182,52.784014 C460.444526,57.535426 456.844989,62.798585 453.92002,68.471142 L402.17737,68.471142 L402.17737,97.076432 L445.633529,97.076432 C445.432633,99.357627 445.310989,101.662795 445.310989,103.996547 C445.310989,106.961915 445.493454,109.883946 445.816915,112.762639 L402.17737,112.762639 L402.17737,140.531614 L454.437004,140.531614 Z M346.091224,124.665604 L346.091224,52.784014 L361.691981,52.784014 L361.691981,162.51554 L286.302605,83.801431 L286.302605,156.218743 L270.701848,156.218743 L270.701848,45.750485 L346.091224,124.665604 Z" id="Logotype" fill="#67EC92"></path>
            <path d="M134.426718,75.643281 L186.621037,22.5031717 L186.621037,130.766423 L134.426718,185.739363 L134.426718,75.643281 Z M123.662572,205.216759 C125.381999,207.027475 128.171578,207.643025 130.501599,206.713249 C131.274282,206.405473 131.965921,205.953946 132.559017,205.371569 L134.904695,203.066017 L135.054811,203.209768 L197.386103,137.560521 C198.492173,136.394844 199.101846,134.867946 199.101846,133.259957 L199.101846,7.2406408 C199.101846,4.6936605 197.580425,2.4249682 195.224617,1.4610964 C192.868809,0.4981462 190.19435,1.0473504 188.410456,2.8645158 L123.735328,68.711882 C122.588736,69.880323 121.945908,71.451453 121.945908,73.088929 L121.945908,185.280464 L15.4556475,73.160805 L71.471017,16.126506 L97.015602,43.02553 C101.746558,48.006149 109.61061,48.221776 114.605881,43.507466 L76.399058,3.383311 L75.840958,2.8331853 C75.228521,2.2231633 74.547013,1.7605786 73.814852,1.4610964 C71.460886,0.4972247 68.785506,1.0473504 67.000691,2.8645158 L2.3789787,68.657515 C2.3329308,68.710961 2.2914878,68.757035 2.2500447,68.803109 L2.1008497,68.970819 C1.9461289,69.145901 1.7978548,69.332962 1.6716837,69.514495 L1.5482754,69.683126 C1.4580217,69.820427 1.3281667,70.048033 1.1983118,70.309735 L1.1412124,70.432292 C1.0058318,70.728088 0.9192618,70.948323 0.8492691,71.163028 L0.7930907,71.323367 C0.7332285,71.531622 0.679813,71.773972 0.6319232,72.054103 L0.6033735,72.254065 C0.5582466,72.588563 0.5370646,72.854872 0.5370646,73.088929 L0.5370646,198.859445 C0.5370646,201.262674 1.7840404,203.57099 3.9243446,204.662026 C6.4394782,205.94381 9.4068017,205.40935 11.3104199,203.399594 L51.019324,162.663574 C45.993662,157.906876 38.090929,158.040491 33.229197,162.963977 L13.0178742,183.430126 L13.0178742,88.722818 L123.662572,205.216759 Z" id="Glyph-2" fill="url(#linearGradient-1)"></path>
        </g>
    </g>
</svg>