<svg width="344" height="485" viewBox="0 0 344 485" fill="none" xmlns="http://www.w3.org/2000/svg">
<path opacity="0.2" d="M171.448 195.582L258.13 282.263V311.183L180.233 233.286C175.413 228.466 171.487 218.982 171.487 212.141L171.448 195.582ZM200.252 79.903H301.432C299.799 66.1039 289.382 51.7607 276.749 46.7075L165.618 2.27843C152.907 -2.81362 134.755 0.917959 125.076 10.5967L42.3592 93.2356C-14.1197 149.715 -14.1197 241.255 42.3592 297.734L149.759 405.133L70.1517 484.74H113.492L192.166 406.105L163.247 377.185L177.707 362.725L259.063 444.082C265.515 450.534 278.148 455.782 287.283 455.782L402.728 455.82L287.05 340.103L287.088 269.902C287.088 260.768 281.88 248.135 275.388 241.682L167.212 133.544C161.575 127.908 161.575 118.735 167.212 113.098L200.252 80.0196V79.903Z" fill="#5C6873"/>
<path d="M363.855 63.9659C363.272 29.7598 335.013 2.47263 300.807 3.09456C283.743 3.40553 268.389 10.5966 257.389 21.9468L289.068 34.6186C292.839 33.0249 296.959 32.092 301.312 32.0143C319.582 31.7033 334.625 46.2409 334.936 64.4712C335.246 82.7404 320.709 97.7833 302.479 98.0943C289.379 98.3275 277.951 90.8643 272.432 79.9028H241.763C248.526 107.345 273.52 127.519 302.984 126.975C337.19 126.392 364.438 98.172 363.855 63.9659Z" fill="#BF8F53"/>
</svg>
