<svg width="260" height="304" viewBox="0 0 260 304" fill="none" xmlns="http://www.w3.org/2000/svg">
<path d="M219.34 121.605L186.303 154.575L218.891 187.098L251.928 154.128L219.34 121.605Z" fill="#F5C832"/>
<path d="M260 259.458C232.443 286.976 194.353 304 152.29 304C68.1813 304 0 235.956 0 152.017C0 68.0778 68.1813 0 152.29 0C194.336 0 232.409 17.0066 259.966 44.4907L216.892 87.4944C200.365 71.0006 177.518 60.7966 152.29 60.7966C101.818 60.7966 60.9196 101.63 60.9196 151.983C60.9196 202.353 101.835 243.169 152.29 243.169C177.535 243.169 200.382 232.948 216.926 216.437L260 259.458Z" fill="#F5C832"/>
</svg>
