<svg width="18" height="12" viewBox="0 0 18 12" fill="none" xmlns="http://www.w3.org/2000/svg">
<path d="M13.3914 3.99611L14.8845 1.40967C14.9245 1.34024 14.9354 1.25779 14.9149 1.18033C14.8943 1.10287 14.8439 1.03669 14.7748 0.99623C14.7406 0.97617 14.7028 0.963092 14.6635 0.95775C14.6242 0.952409 14.5843 0.954912 14.546 0.965114C14.5077 0.975316 14.4718 0.993015 14.4404 1.01718C14.409 1.04135 14.3827 1.07151 14.3631 1.10592L12.8514 3.72576C11.6972 3.19841 10.3982 2.90486 9.00105 2.90486C7.60395 2.90486 6.30492 3.19877 5.15074 3.72576L3.63902 1.10592C3.59874 1.03655 3.53256 0.986018 3.45502 0.965448C3.37749 0.944878 3.29496 0.95595 3.22559 0.99623C3.15622 1.03651 3.10569 1.1027 3.08512 1.18023C3.06455 1.25777 3.07562 1.3403 3.1159 1.40967L4.60547 3.99611C2.03203 5.3897 0.28793 7.99583 0 11.0467H18C17.7121 7.99583 15.968 5.3897 13.3914 3.99611ZM4.86738 8.51895C4.71817 8.51895 4.5723 8.47471 4.44823 8.39181C4.32416 8.30891 4.22746 8.19108 4.17036 8.05322C4.11326 7.91536 4.09832 7.76366 4.12743 7.61732C4.15654 7.47097 4.22839 7.33654 4.3339 7.23102C4.43942 7.12551 4.57385 7.05366 4.7202 7.02455C4.86655 6.99544 5.01824 7.01038 5.1561 7.06748C5.29396 7.12458 5.41179 7.22128 5.49469 7.34535C5.57759 7.46942 5.62184 7.61529 5.62184 7.7645C5.62174 7.96457 5.54223 8.15641 5.40076 8.29788C5.25929 8.43934 5.06745 8.51886 4.86738 8.51895ZM13.1291 8.51895C12.98 8.51833 12.8345 8.47355 12.7108 8.39027C12.5872 8.30699 12.491 8.18894 12.4343 8.05103C12.3777 7.91312 12.3632 7.76153 12.3927 7.61539C12.4222 7.46924 12.4943 7.33511 12.5999 7.22991C12.7055 7.12472 12.84 7.05318 12.9862 7.02432C13.1325 6.99547 13.284 7.01059 13.4217 7.06779C13.5594 7.12498 13.677 7.22168 13.7598 7.34568C13.8425 7.46968 13.8867 7.61542 13.8867 7.7645C13.8867 7.86371 13.8671 7.96194 13.829 8.05357C13.791 8.1452 13.7353 8.22843 13.665 8.2985C13.5948 8.36857 13.5114 8.42411 13.4197 8.46194C13.328 8.49976 13.2297 8.51914 13.1305 8.51895H13.1291Z" fill="#1B213D"/>
</svg>
