<svg width="16" height="18" viewBox="0 0 16 18" fill="none" xmlns="http://www.w3.org/2000/svg">
<path fill-rule="evenodd" clip-rule="evenodd" d="M8.35136 1.48088C9.01024 0.679374 10.1352 0.0654867 11.0994 0C11.2633 1.0964 10.8149 2.16508 10.2236 2.91918C9.60967 3.71145 8.55867 4.32976 7.53177 4.32976H7.45463C7.26179 3.28478 7.75354 2.20726 8.35136 1.48088ZM9.41749 4.65149C9.96801 4.44253 10.5731 4.21284 11.4561 4.21284L11.4521 4.21445C12.6763 4.21445 13.9747 4.88459 14.8988 6.04165C11.8715 7.70533 12.3633 12.0447 15.4243 13.2066C15.0065 14.1447 14.804 14.5609 14.2592 15.3902C13.5023 16.5432 12.4372 17.9815 11.1114 17.9956H11.0873C10.5577 17.9956 10.2058 17.8339 9.82685 17.6598C9.38465 17.4567 8.90559 17.2367 8.06446 17.2367H8.04036C7.18679 17.2414 6.6935 17.4622 6.24024 17.6651C5.85144 17.8392 5.49209 18 4.96007 18H4.93597C3.61016 17.9859 2.59934 16.6879 1.84242 15.5304C-0.273642 12.297 -0.495413 8.50162 0.811107 6.4864C1.74158 5.05734 3.2068 4.21847 4.58081 4.21847C5.31663 4.21847 5.90916 4.42931 6.47303 4.62996C6.98488 4.8121 7.47312 4.98583 8.02348 4.98583C8.53667 4.98583 8.95808 4.82587 9.41749 4.65149Z" fill="#1B213D"/>
</svg>
