<svg width="1201" height="24" viewBox="0 0 1201 24" fill="none" xmlns="http://www.w3.org/2000/svg">
<path d="M12 16H22" stroke="#14499E" stroke-width="2"/>
<path d="M2 16H12" stroke="#14499E" stroke-width="2"/>
<path d="M4 13V7H20V13" stroke="#14499E" stroke-width="2"/>
<mask id="path-4-inside-1" fill="white">
<path fill-rule="evenodd" clip-rule="evenodd" d="M13.7755 15.4999C13.4825 15.4999 13.2128 15.6762 13.1367 15.9591C13.0476 16.291 13 16.6399 13 16.9999C13 19.209 14.7909 20.9999 17 20.9999C19.2091 20.9999 21 19.209 21 16.9999C21 16.4024 20.869 15.8355 20.6342 15.3264C20.5823 15.214 20.4286 15.254 20.4286 15.3777V15.3777C20.4286 15.4452 20.3739 15.4999 20.3064 15.4999H19.8508C19.3184 15.4999 18.9488 16.3011 18.993 16.8316C18.9976 16.8871 19 16.9432 19 16.9999C19 18.1044 18.1046 18.9999 17 18.9999C15.8954 18.9999 15 18.1044 15 16.9999V16.9999C15 16.4089 14.5718 15.4999 13.9808 15.4999H13.7755Z"/>
</mask>
<path d="M20.6342 15.3264L22.4503 14.4887L20.6342 15.3264ZM11.2052 15.4401C11.071 15.9397 11 16.463 11 16.9999H15C15 16.8167 15.0241 16.6423 15.0682 16.4782L11.2052 15.4401ZM11 16.9999C11 20.3136 13.6863 22.9999 17 22.9999V18.9999C15.8954 18.9999 15 18.1044 15 16.9999H11ZM17 22.9999C20.3137 22.9999 23 20.3136 23 16.9999H19C19 18.1044 18.1046 18.9999 17 18.9999V22.9999ZM23 16.9999C23 16.1073 22.8038 15.2551 22.4503 14.4887L18.8181 16.1641C18.9342 16.4159 19 16.6974 19 16.9999H23ZM20.3064 13.4999H19.8508V17.4999H20.3064V13.4999ZM21 16.9999C21 16.8877 20.9953 16.7762 20.9861 16.6656L16.9999 16.9976C17 16.9979 17 16.9987 17 16.9999H21ZM17 20.9999C19.2091 20.9999 21 19.209 21 16.9999H17V20.9999ZM13 16.9999C13 19.209 14.7909 20.9999 17 20.9999V16.9999H13ZM13.9808 13.4999H13.7755V17.4999H13.9808V13.4999ZM19.8508 13.4999C18.5154 13.4999 17.7616 14.4664 17.4722 14.9694C17.1466 15.5353 16.9393 16.2701 16.9999 16.9976L20.9861 16.6656C20.9965 16.7898 20.9798 16.8604 20.9759 16.8766C20.9706 16.8979 20.9619 16.9248 20.9392 16.9643C20.9203 16.9972 20.8539 17.1047 20.7027 17.2207C20.5396 17.3456 20.246 17.4999 19.8508 17.4999V13.4999ZM22.4503 14.4887C22.0083 13.5305 20.9698 13.0837 20.0195 13.3251C19.1029 13.5579 18.4286 14.3854 18.4286 15.3777H22.4286C22.4286 16.2462 21.8311 16.9919 21.0044 17.2019C20.1439 17.4205 19.2082 17.0099 18.8181 16.1641L22.4503 14.4887ZM17 16.9999C17 16.3015 16.7725 15.5743 16.4264 14.9982C16.1294 14.5039 15.3507 13.4999 13.9808 13.4999V17.4999C13.59 17.4999 13.3113 17.3447 13.1728 17.2386C13.0446 17.1403 12.998 17.0588 12.9977 17.0583C12.9929 17.0504 12.9992 17.0604 13.0047 17.0791C13.0116 17.1026 13 17.0786 13 16.9999H17ZM18.4286 15.3777C18.4286 14.3406 19.2693 13.4999 20.3064 13.4999V17.4999C21.4785 17.4999 22.4286 16.5497 22.4286 15.3777H18.4286ZM15.0682 16.4782C14.8725 17.2065 14.2363 17.4999 13.7755 17.4999V13.4999C12.7287 13.4999 11.553 14.1459 11.2052 15.4401L15.0682 16.4782Z" fill="#14499E" mask="url(#path-4-inside-1)"/>
<mask id="path-6-inside-2" fill="white">
<path fill-rule="evenodd" clip-rule="evenodd" d="M3.7755 15.4999C3.48251 15.4999 3.21276 15.6762 3.13673 15.9591C3.04755 16.291 3 16.6399 3 16.9999C3 19.209 4.79086 20.9999 7 20.9999C9.20914 20.9999 11 19.209 11 16.9999C11 16.4024 10.869 15.8355 10.6342 15.3264C10.5823 15.214 10.4286 15.254 10.4286 15.3777V15.3777C10.4286 15.4452 10.3739 15.4999 10.3064 15.4999H9.85075C9.31845 15.4999 8.94884 16.3011 8.99302 16.8316C8.99764 16.8871 9 16.9432 9 16.9999C9 18.1044 8.10457 18.9999 7 18.9999C5.89543 18.9999 5 18.1044 5 16.9999V16.9999C5 16.4089 4.57181 15.4999 3.98082 15.4999H3.7755Z"/>
</mask>
<path d="M10.6342 15.3264L12.4503 14.4887L10.6342 15.3264ZM1.20525 15.4401C1.071 15.9397 1 16.463 1 16.9999H5C5 16.8167 5.02411 16.6423 5.06821 16.4782L1.20525 15.4401ZM1 16.9999C1 20.3136 3.68629 22.9999 7 22.9999V18.9999C5.89543 18.9999 5 18.1044 5 16.9999H1ZM7 22.9999C10.3137 22.9999 13 20.3136 13 16.9999H9C9 18.1044 8.10457 18.9999 7 18.9999V22.9999ZM13 16.9999C13 16.1073 12.8038 15.2551 12.4503 14.4887L8.81805 16.1641C8.93421 16.4159 9 16.6974 9 16.9999H13ZM10.3064 13.4999H9.85075V17.4999H10.3064V13.4999ZM11 16.9999C11 16.8877 10.9953 16.7762 10.9861 16.6656L6.99992 16.9976C6.99995 16.9979 7 16.9987 7 16.9999H11ZM7 20.9999C9.20914 20.9999 11 19.209 11 16.9999H7V20.9999ZM3 16.9999C3 19.209 4.79086 20.9999 7 20.9999V16.9999H3ZM3.98082 13.4999H3.7755V17.4999H3.98082V13.4999ZM9.85075 13.4999C8.51545 13.4999 7.76155 14.4664 7.47219 14.9694C7.14655 15.5353 6.93933 16.2701 6.99992 16.9976L10.9861 16.6656C10.9965 16.7898 10.9798 16.8604 10.9759 16.8766C10.9706 16.8979 10.9619 16.9248 10.9392 16.9643C10.9203 16.9972 10.8539 17.1047 10.7027 17.2207C10.5396 17.3456 10.246 17.4999 9.85075 17.4999V13.4999ZM12.4503 14.4887C12.0083 13.5305 10.9698 13.0837 10.0195 13.3251C9.10295 13.5579 8.42857 14.3854 8.42857 15.3777H12.4286C12.4286 16.2462 11.8311 16.9919 11.0044 17.2019C10.1439 17.4205 9.20818 17.0099 8.81805 16.1641L12.4503 14.4887ZM7 16.9999C7 16.3015 6.77252 15.5743 6.4264 14.9982C6.12941 14.5039 5.35069 13.4999 3.98082 13.4999V17.4999C3.59005 17.4999 3.31133 17.3447 3.17284 17.2386C3.0446 17.1403 2.99797 17.0588 2.99766 17.0583C2.99294 17.0504 2.99925 17.0604 3.00473 17.0791C3.01162 17.1026 3 17.0786 3 16.9999H7ZM8.42857 15.3777C8.42857 14.3406 9.26932 13.4999 10.3064 13.4999V17.4999C11.4785 17.4999 12.4286 16.5497 12.4286 15.3777H8.42857ZM5.06821 16.4782C4.87249 17.2065 4.23635 17.4999 3.7755 17.4999V13.4999C2.72867 13.4999 1.55303 14.1459 1.20525 15.4401L5.06821 16.4782Z" fill="#14499E" mask="url(#path-6-inside-2)"/>
<path d="M6 2C8.4 5.125 13.8 7 18 7" stroke="#14499E" stroke-width="2"/>
<path d="M66.2222 20.2222H62C60.8954 20.2222 60 19.3268 60 18.2222V5C60 3.89543 60.8954 3 62 3H72.4444C73.549 3 74.4444 3.89543 74.4444 5V9.61111" stroke="#14499E" stroke-width="2" stroke-linecap="round"/>
<path d="M64.667 3H69.1114V10.6667C69.1114 11.0787 68.6411 11.3139 68.3114 11.0667L67.4892 10.45C67.1337 10.1833 66.6448 10.1833 66.2892 10.45L65.467 11.0667C65.1374 11.3139 64.667 11.0787 64.667 10.6667V3Z" fill="#14499E"/>
<path d="M69 16.85L72.3333 20L77 13" stroke="#14499E" stroke-width="2" stroke-linecap="round" stroke-linejoin="round"/>
<path d="M123.166 18.6662C123.166 19.2185 123.614 19.6662 124.166 19.6662C124.719 19.6662 125.166 19.2185 125.166 18.6662H123.166ZM114.833 18.6662C114.833 19.2185 115.281 19.6662 115.833 19.6662C116.385 19.6662 116.833 19.2185 116.833 18.6662H114.833ZM120 15.4995C121.749 15.4995 123.166 16.9173 123.166 18.6662H125.166C125.166 15.8127 122.853 13.4995 120 13.4995V15.4995ZM120 13.4995C117.146 13.4995 114.833 15.8127 114.833 18.6662H116.833C116.833 16.9173 118.251 15.4995 120 15.4995V13.4995Z" fill="#14499E"/>
<circle cx="120" cy="10.333" r="4" stroke="#14499E" stroke-width="2"/>
<path d="M132.416 17.5011V17.5011C132.416 15.8903 131.111 14.5845 129.5 14.5845V14.5845C127.889 14.5845 126.583 15.8903 126.583 17.5011V17.5011" stroke="#14499E" stroke-width="2" stroke-linecap="round"/>
<circle cx="129.5" cy="11.667" r="2.5" stroke="#14499E" stroke-width="2"/>
<circle cx="180" cy="12" r="7" stroke="#14499E" stroke-width="2"/>
<path d="M179.809 7.61836C179.867 7.43043 180.133 7.43043 180.191 7.61836L180.953 10.0853C181.018 10.2948 181.212 10.4377 181.431 10.4377H183.909C184.1 10.4377 184.182 10.6805 184.03 10.7966L181.996 12.3506C181.829 12.4778 181.76 12.6953 181.822 12.8955L182.596 15.4022C182.654 15.5882 182.439 15.7384 182.284 15.6201L180.304 14.1073C180.124 13.9704 179.876 13.9704 179.696 14.1073L177.716 15.6201C177.561 15.7384 177.346 15.5882 177.404 15.4022L178.178 12.8955C178.24 12.6953 178.171 12.4778 178.004 12.3506L175.97 10.7966C175.818 10.6805 175.9 10.4377 176.091 10.4377H178.569C178.788 10.4377 178.982 10.2948 179.047 10.0853L179.809 7.61836Z" fill="#14499E"/>
<path d="M236 9C234.444 6.5 230.556 6 229 6V15C231.4 15 234.667 17 236 18V9Z" stroke="#14499E" stroke-width="2" stroke-linejoin="round"/>
<path d="M236 9C237.556 6.5 241.444 6 243 6V15C240.6 15 237.333 17 236 18" stroke="#14499E" stroke-width="2" stroke-linejoin="round"/>
<path fill-rule="evenodd" clip-rule="evenodd" d="M298.493 4.5C298.644 4.5 298.787 4.53326 298.916 4.59283C299.049 4.65475 299.167 4.74509 299.26 4.85604C299.319 4.9247 299.366 4.99932 299.402 5.07768C299.462 5.20532 299.495 5.34761 299.495 5.49762L299.495 11.3555C299.495 11.9065 299.046 12.3531 298.493 12.3531C297.939 12.3531 297.49 11.9065 297.49 11.3555L297.49 7.9061L293.956 11.4239C295.303 13.4219 295.09 16.1529 293.316 17.9187C291.299 19.9259 288.029 19.9259 286.013 17.9187C283.996 15.9115 283.996 12.6572 286.013 10.65C287.787 8.88419 290.531 8.67186 292.538 10.013L296.073 6.49525L292.607 6.49525C292.053 6.49525 291.605 6.04859 291.605 5.49762C291.605 4.94665 292.053 4.5 292.607 4.5H298.493ZM291.891 12.0541C290.657 10.8329 288.662 10.8352 287.43 12.0609C286.196 13.2889 286.196 15.2799 287.43 16.5079C288.664 17.7359 290.664 17.7359 291.898 16.5079C293.13 15.2822 293.132 13.2963 291.905 12.0677C291.903 12.0655 291.901 12.0632 291.898 12.0609C291.896 12.0587 291.894 12.0564 291.891 12.0541Z" fill="#14499E"/>
<path d="M349 15.5C349 16.0523 349.448 16.5 350 16.5C350.552 16.5 351 16.0523 351 15.5H349ZM345 15.5C345 16.0523 345.448 16.5 346 16.5C346.552 16.5 347 16.0523 347 15.5H345ZM348 14.5C348.552 14.5 349 14.9477 349 15.5H351C351 13.8431 349.657 12.5 348 12.5V14.5ZM348 12.5C346.343 12.5 345 13.8431 345 15.5H347C347 14.9477 347.448 14.5 348 14.5V12.5Z" fill="#14499E"/>
<circle cx="348" cy="11" r="2.5" stroke="#14499E" stroke-width="2"/>
<circle cx="348" cy="12" r="7" stroke="#14499E" stroke-width="2"/>
<path fill-rule="evenodd" clip-rule="evenodd" d="M414 12C414 12.5523 413.552 13 413 13L395 13C394.448 13 394 12.5523 394 12C394 11.4477 394.448 11 395 11L413 11C413.552 11 414 11.4477 414 12Z" fill="#14499E"/>
<path fill-rule="evenodd" clip-rule="evenodd" d="M408.293 16.7071C407.902 16.3166 407.902 15.6834 408.293 15.2929L411.586 12L408.293 8.70711C407.902 8.31658 407.902 7.68342 408.293 7.29289C408.683 6.90237 409.317 6.90237 409.707 7.29289L413.707 11.2929C414.098 11.6834 414.098 12.3166 413.707 12.7071L409.707 16.7071C409.317 17.0976 408.683 17.0976 408.293 16.7071Z" fill="#14499E"/>
<path d="M455.222 19.2222H453C451.895 19.2222 451 18.3268 451 17.2222V4C451 2.89543 451.895 2 453 2H463.444C464.549 2 465.444 2.89543 465.444 4V8.61111" stroke="#14499E" stroke-width="2" stroke-linecap="round"/>
<path d="M454.667 2H459.111V9.66667C459.111 10.0787 458.641 10.3139 458.311 10.0667L457.489 9.45C457.134 9.18333 456.645 9.18333 456.289 9.45L455.467 10.0667C455.137 10.3139 454.667 10.0787 454.667 9.66667V2Z" fill="#14499E"/>
<rect x="459" y="15" width="10" height="7" rx="1" stroke="#14499E" stroke-width="2" stroke-linecap="round" stroke-linejoin="round"/>
<path d="M463 12H465C465.552 12 466 12.4477 466 13V15H462V13C462 12.4477 462.448 12 463 12Z" stroke="#14499E" stroke-width="2" stroke-linecap="round" stroke-linejoin="round"/>
<path d="M463 18.5H465" stroke="#14499E" stroke-width="2" stroke-linecap="round" stroke-linejoin="round"/>
<path fill-rule="evenodd" clip-rule="evenodd" d="M511.377 15.8243C510.953 15.312 510.612 14.7279 510.376 14.093L507.706 15.6341C507.228 15.9103 507.064 16.5219 507.34 17.0002C507.616 17.4785 508.228 17.6423 508.706 17.3662L511.377 15.8243ZM521.625 9.90734L524.295 8.36619C524.773 8.09005 524.937 7.47846 524.661 7.00017C524.385 6.52187 523.773 6.358 523.295 6.63414L520.624 8.17603C521.048 8.68841 521.389 9.27247 521.625 9.90734Z" fill="#14499E"/>
<path fill-rule="evenodd" clip-rule="evenodd" d="M521.625 14.093C521.389 14.7279 521.048 15.3119 520.624 15.8243L523.295 17.3662C523.773 17.6423 524.385 17.4785 524.661 17.0002C524.937 16.5219 524.773 15.9103 524.295 15.6341L521.625 14.093ZM511.377 8.17602L508.706 6.63414C508.228 6.358 507.616 6.52187 507.34 7.00017C507.064 7.47846 507.228 8.09005 507.706 8.36619L510.376 9.90732C510.612 9.27245 510.953 8.68839 511.377 8.17602Z" fill="#14499E"/>
<path fill-rule="evenodd" clip-rule="evenodd" d="M517 3C517 2.44772 516.552 2 516 2C515.448 2 515 2.44772 515 3V6.08296C515.325 6.0284 515.659 6 516 6C516.341 6 516.675 6.0284 517 6.08296V3ZM517 17.917C516.675 17.9716 516.341 18 516 18C515.659 18 515.325 17.9716 515 17.917V21C515 21.5523 515.448 22 516 22C516.552 22 517 21.5523 517 21V17.917Z" fill="#14499E"/>
<circle cx="516" cy="12" r="3" stroke="#14499E" stroke-width="2"/>
<path d="M564 9H580" stroke="#14499E" stroke-width="2" stroke-linecap="round" stroke-linejoin="round"/>
<path d="M564 15H580" stroke="#14499E" stroke-width="2" stroke-linecap="round" stroke-linejoin="round"/>
<path d="M624.005 11.7443L625.33 10H630.663L632.048 11.8699C633.104 13.2958 634.015 14.8244 634.765 16.4324C635.541 18.0947 634.327 20 632.493 20H623.278C621.535 20 620.375 18.1977 621.098 16.6115C621.884 14.8865 622.859 13.2541 624.005 11.7443Z" stroke="#14499E" stroke-width="2"/>
<path d="M629.896 9.208L629.557 10H626.433L626.41 9.94724C625.663 8.26726 624.57 6.76367 623.203 5.53466C622.857 5.22346 623.039 4.64933 623.502 4.59494L624.856 4.43561C627.174 4.1629 629.524 4.43629 631.717 5.23392C632.011 5.34071 632.11 5.70653 631.909 5.94658L631.847 6.02183C631.045 6.98362 630.388 8.05693 629.896 9.208Z" stroke="#14499E" stroke-width="2"/>
<rect x="676" y="8" width="16" height="12" rx="2" stroke="#14499E" stroke-width="2" stroke-linecap="round" stroke-linejoin="round"/>
<path d="M683 4H685C686.105 4 687 4.89543 687 6V8H681V6C681 4.89543 681.895 4 683 4Z" stroke="#14499E" stroke-width="2" stroke-linecap="round" stroke-linejoin="round"/>
<path d="M681 12V16" stroke="#14499E" stroke-width="2" stroke-linecap="round" stroke-linejoin="round"/>
<path d="M687 12V16" stroke="#14499E" stroke-width="2" stroke-linecap="round" stroke-linejoin="round"/>
<path d="M745 20H735C734.448 20 734 19.5523 734 19V5C734 4.44772 734.448 4 735 4H740.757C741.288 4 741.797 4.21071 742.172 4.58579L743.793 6.20711L745.414 7.82843C745.789 8.2035 746 8.71221 746 9.24264V19C746 19.5523 745.552 20 745 20Z" stroke="#14499E" stroke-width="2"/>
<path d="M738 12H740" stroke="#14499E" stroke-width="2" stroke-linecap="round" stroke-linejoin="round"/>
<path d="M738 16H742" stroke="#14499E" stroke-width="2" stroke-linecap="round" stroke-linejoin="round"/>
<path d="M742.707 3.70711L746.293 7.29289C746.746 7.74565 747 8.35971 747 9H743C741.895 9 741 8.10457 741 7V3C741.64 3 742.254 3.25435 742.707 3.70711Z" fill="#14499E"/>
<path fill-rule="evenodd" clip-rule="evenodd" d="M803.707 10.7071C804.098 10.3166 804.098 9.68342 803.707 9.29289C803.317 8.90237 802.683 8.90237 802.293 9.29289L798 13.5858V2.75C798 2.33579 797.552 2 797 2C796.448 2 796 2.33579 796 2.75V13.5858L791.707 9.29289C791.317 8.90237 790.683 8.90237 790.293 9.29289C789.902 9.68342 789.902 10.3166 790.293 10.7071L796.036 16.4503C796.153 16.7672 796.54 17 797 17C797.46 17 797.847 16.7672 797.964 16.4502L803.707 10.7071Z" fill="#14499E"/>
<rect x="789" y="19" width="16" height="2" rx="1" fill="#14499E"/>
<path d="M856.549 6.96361L858.319 8.73345C858.709 9.12398 858.709 9.75714 858.319 10.1477L851.697 16.7694C851.509 16.957 851.255 17.0623 850.99 17.0623L848.22 17.0623L848.22 14.2925C848.22 14.0273 848.325 13.7729 848.513 13.5854L855.135 6.9636C855.525 6.57308 856.158 6.57308 856.549 6.96361Z" stroke="#14499E" stroke-width="2" stroke-linecap="round" stroke-linejoin="round"/>
<path d="M917 15.9715C917 15.4847 916.534 15.1331 916.066 15.2669V15.2669C914.364 15.7533 912.602 16 910.831 16H910.754C910.338 16 910 16.3376 910 16.7541V20H917V15.9715Z" fill="#14499E"/>
<path d="M904.246 11C904.662 11 905 10.6624 905 10.2459L905 10.1685C905 8.39815 905.247 6.63641 905.733 4.93415V4.93415C905.867 4.46601 905.515 4 905.028 4L901 4L901 11L904.246 11Z" fill="#14499E"/>
<path d="M901 5C901 16 906 20 916 20" stroke="#14499E" stroke-width="2" stroke-linecap="round" stroke-linejoin="round"/>
<path fill-rule="evenodd" clip-rule="evenodd" d="M970 3C971.657 3 973 4.34315 973 6V18C973 19.6569 971.657 21 970 21H964C963.448 21 963 20.5523 963 20C963 19.4477 963.448 19 964 19H970C970.552 19 971 18.5523 971 18V6C971 5.44772 970.552 5 970 5H964C963.448 5 963 4.55228 963 4C963 3.44772 963.448 3 964 3H970ZM962.293 15.2929C961.902 15.6834 961.902 16.3166 962.293 16.7071C962.683 17.0976 963.317 17.0976 963.707 16.7071L967.707 12.7071C967.895 12.5196 968 12.2652 968 12C968 11.7348 967.895 11.4804 967.707 11.2929L967.706 11.2918L963.707 7.29289C963.317 6.90237 962.683 6.90237 962.293 7.29289C961.902 7.68342 961.902 8.31658 962.293 8.70711L964.586 11H955C954.448 11 954 11.4477 954 12C954 12.5523 954.448 13 955 13H964.586L962.293 15.2929Z" fill="#14499E"/>
<path d="M1021 6.34326V17.657" stroke="#14499E" stroke-width="2" stroke-linecap="round" stroke-linejoin="round"/>
<path d="M1026.66 12L1015.34 12" stroke="#14499E" stroke-width="2" stroke-linecap="round" stroke-linejoin="round"/>
<rect x="1072" y="5.77783" width="12.4444" height="15.2222" rx="1" stroke="#14499E" stroke-width="2"/>
<path d="M1082.33 4.84314V4C1082.33 2.89543 1081.44 2 1080.33 2H1071C1069.9 2 1069 2.89543 1069 4V16.1111C1069 17.2157 1069.9 18.1111 1071 18.1111H1071.86" stroke="#14499E" stroke-width="2"/>
<path d="M1075.67 4.77783H1080.11V12.4445C1080.11 12.8565 1079.64 13.0917 1079.31 12.8445L1078.49 12.2278C1078.13 11.9612 1077.64 11.9612 1077.29 12.2278L1076.47 12.8445C1076.14 13.0917 1075.67 12.8565 1075.67 12.4445V4.77783Z" fill="#14499E"/>
<path fill-rule="evenodd" clip-rule="evenodd" d="M1133 18C1136.31 18 1139 15.3137 1139 12C1139 8.68629 1136.31 6 1133 6C1129.69 6 1127 8.68629 1127 12C1127 15.3137 1129.69 18 1133 18ZM1133 20C1137.42 20 1141 16.4183 1141 12C1141 7.58172 1137.42 4 1133 4C1128.58 4 1125 7.58172 1125 12C1125 16.4183 1128.58 20 1133 20ZM1133 16C1133.55 16 1134 15.5523 1134 15V12C1134 11.4477 1133.55 11 1133 11C1132.45 11 1132 11.4477 1132 12V15C1132 15.5523 1132.45 16 1133 16ZM1133 8C1133.55 8 1134 8.44772 1134 9C1134 9.55228 1133.55 10 1133 10C1132.45 10 1132 9.55228 1132 9C1132 8.44772 1132.45 8 1133 8Z" fill="#14499E"/>
<path fill-rule="evenodd" clip-rule="evenodd" d="M1184 4.88574C1184 4.33346 1183.55 3.88574 1183 3.88574C1182.45 3.88574 1182 4.33346 1182 4.88574V7.55349V7.55353C1182 9.08805 1183.24 10.332 1184.78 10.332H1185V19.1137C1185 19.666 1185.45 20.1137 1186 20.1137C1186.55 20.1137 1187 19.666 1187 19.1137V10.332H1187.22C1188.76 10.332 1190 9.08805 1190 7.55353V7.55349V4.88574C1190 4.33346 1189.55 3.88574 1189 3.88574C1188.45 3.88574 1188 4.33346 1188 4.88574V7.55349V7.55353C1188 7.98348 1187.65 8.33203 1187.22 8.33203H1187V4.88574C1187 4.33346 1186.55 3.88574 1186 3.88574C1185.45 3.88574 1185 4.33346 1185 4.88574V8.33203H1184.78C1184.35 8.33203 1184 7.98348 1184 7.55353V7.55349V4.88574ZM1193.1 4.69629C1193.59 4.15183 1194.25 3.88574 1195 3.88574H1196V4.88574V11.5551V12.5551V19.1137C1196 19.666 1195.55 20.1137 1195 20.1137C1194.45 20.1137 1194 19.666 1194 19.1137V12.5551H1193H1192V11.5551L1192 11.4449C1192 9.53477 1192 7.78198 1192.27 6.51037C1192.41 5.85413 1192.65 5.19742 1193.1 4.69629Z" fill="#14499E"/>
</svg>
