<svg width="1200" height="24" viewBox="0 0 1200 24" fill="none" xmlns="http://www.w3.org/2000/svg">
<path fill-rule="evenodd" clip-rule="evenodd" d="M12 2C12.5523 2 13 2.44772 13 3L13 21C13 21.5523 12.5523 22 12 22C11.4477 22 11 21.5523 11 21L11 3C11 2.44772 11.4477 2 12 2Z" fill="white"/>
<path fill-rule="evenodd" clip-rule="evenodd" d="M16.7071 7.70711C16.3166 8.09763 15.6834 8.09763 15.2929 7.70711L12 4.41421L8.70711 7.70711C8.31658 8.09763 7.68342 8.09763 7.29289 7.70711C6.90237 7.31658 6.90237 6.68342 7.29289 6.29289L11.2929 2.29289C11.6834 1.90237 12.3166 1.90237 12.7071 2.29289L16.7071 6.29289C17.0976 6.68342 17.0976 7.31658 16.7071 7.70711Z" fill="white"/>
<circle cx="67" cy="11" r="7" stroke="white" stroke-width="2"/>
<path d="M72 16L76 20" stroke="white" stroke-width="2" stroke-linecap="round"/>
<path d="M126 12V12C126 10.3431 124.657 9 123 9L121 9C119.343 9 118 10.3431 118 12L118 18C118 19.6569 119.343 21 121 21L123 21C124.657 21 126 19.6569 126 18V18" stroke="white" stroke-width="2"/>
<path d="M122 12V12C122 13.6569 123.343 15 125 15L127 15C128.657 15 130 13.6569 130 12L130 6C130 4.34315 128.657 3 127 3L125 3C123.343 3 122 4.34315 122 6V6" stroke="white" stroke-width="2"/>
<path d="M186 10.3889C186 11.0019 185.782 11.8084 185.355 12.7636C184.935 13.7033 184.348 14.7107 183.691 15.7035C182.397 17.6585 180.885 19.4793 180 20.4974C179.115 19.4793 177.603 17.6585 176.309 15.7035C175.652 14.7107 175.065 13.7033 174.645 12.7636C174.218 11.8084 174 11.0019 174 10.3889C174 6.80877 176.737 4 180 4C183.263 4 186 6.80877 186 10.3889Z" stroke="white" stroke-width="2"/>
<circle cx="180" cy="10.5" r="2" fill="white"/>
<path fill-rule="evenodd" clip-rule="evenodd" d="M228 7C228 6.44772 228.448 6 229 6H243C243.552 6 244 6.44772 244 7C244 7.55228 243.552 8 243 8H229C228.448 8 228 7.55228 228 7ZM228 12C228 11.4477 228.448 11 229 11H235C235.552 11 236 11.4477 236 12C236 12.5523 235.552 13 235 13H229C228.448 13 228 12.5523 228 12ZM229 16C228.448 16 228 16.4477 228 17C228 17.5523 228.448 18 229 18H239C239.552 18 240 17.5523 240 17C240 16.4477 239.552 16 239 16H229Z" fill="white"/>
<path d="M286 3.77783H296.444C296.997 3.77783 297.444 4.22555 297.444 4.77783V16.0001C297.444 16.5523 296.997 17.0001 296.444 17.0001H291.222H286.561C286.117 17.0001 285.678 17.0987 285.277 17.2888L285 17.4199V4.77783C285 4.22555 285.448 3.77783 286 3.77783Z" stroke="white" stroke-width="2"/>
<path d="M287.667 2.77783H292.111V10.4445C292.111 10.8565 291.641 11.0917 291.311 10.8445L290.489 10.2278C290.134 9.96116 289.645 9.96116 289.289 10.2278L288.467 10.8445C288.137 11.0917 287.667 10.8565 287.667 10.4445V2.77783Z" fill="white"/>
<path d="M287 17C285.895 17 285 17.8954 285 19C285 20.1046 285.895 21 287 21H297.5" stroke="white" stroke-width="2" stroke-linecap="round"/>
<path fill-rule="evenodd" clip-rule="evenodd" d="M348.889 3.4165C348.336 3.4165 347.889 3.86422 347.889 4.4165C347.889 4.96879 348.336 5.4165 348.889 5.4165H352.81L348.158 10.4008C347.886 10.6919 347.813 11.1165 347.972 11.4817C348.13 11.8469 348.49 12.0832 348.889 12.0832H355.111C355.663 12.0832 356.111 11.6354 356.111 11.0832C356.111 10.5309 355.663 10.0832 355.111 10.0832H351.19L355.842 5.09882C356.114 4.80772 356.187 4.38316 356.028 4.01796C355.869 3.65275 355.509 3.4165 355.111 3.4165H348.889ZM341.889 13.7498C341.889 11.3566 343.829 9.41649 346.222 9.41649C346.774 9.41649 347.222 8.96878 347.222 8.41649C347.222 7.86421 346.774 7.41649 346.222 7.41649C342.724 7.41649 339.889 10.252 339.889 13.7498C339.889 17.2476 342.724 20.0831 346.222 20.0831C349.72 20.0831 352.555 17.2476 352.555 13.7498C352.555 13.1975 352.108 12.7498 351.555 12.7498C351.003 12.7498 350.555 13.1975 350.555 13.7498C350.555 16.143 348.615 18.0831 346.222 18.0831C343.829 18.0831 341.889 16.143 341.889 13.7498Z" fill="white"/>
<g clip-path="url(#clip0)">
<rect x="413.192" y="11.2925" width="4" height="12" rx="2" transform="rotate(135 413.192 11.2925)" stroke="white" stroke-width="2"/>
<rect x="406.122" y="18.3638" width="4" height="12" rx="2" transform="rotate(135 406.122 18.3638)" stroke="white" stroke-width="2"/>
<rect x="401.172" y="19.0708" width="2" height="6" rx="1" transform="rotate(135 401.172 19.0708)" stroke="white" stroke-width="2"/>
<rect x="412.485" y="7.75732" width="2" height="6" rx="1" transform="rotate(135 412.485 7.75732)" stroke="white" stroke-width="2"/>
<rect x="400.465" y="14.1211" width="8" height="2" transform="rotate(-45 400.465 14.1211)" fill="white"/>
</g>
<circle cx="460" cy="12" r="7" stroke="white" stroke-width="2"/>
<path d="M460 8V12L461.5 14.5" stroke="white" stroke-width="2" stroke-linecap="round" stroke-linejoin="round"/>
<rect x="462" y="2.92285" width="2" height="8" rx="1" transform="rotate(-60 462 2.92285)" fill="white"/>
<rect width="2" height="8" rx="1" transform="matrix(-0.5 -0.866025 -0.866025 0.5 457.928 2.92285)" fill="white"/>
<path d="M518 5V5C519.105 5 520 5.89543 520 7V10C520 11.1046 520.895 12 522 12V12" stroke="white" stroke-width="2" stroke-linecap="round"/>
<path d="M518 19V19C519.105 19 520 18.1046 520 17V14C520 12.8954 520.895 12 522 12V12" stroke="white" stroke-width="2" stroke-linecap="round"/>
<path d="M514 5V5C512.895 5 512 5.89543 512 7V10C512 11.1046 511.105 12 510 12V12" stroke="white" stroke-width="2" stroke-linecap="round"/>
<path d="M514 19V19C512.895 19 512 18.1046 512 17V14C512 12.8954 511.105 12 510 12V12" stroke="white" stroke-width="2" stroke-linecap="round"/>
<path d="M568 8L576 16" stroke="white" stroke-width="2" stroke-linecap="round" stroke-linejoin="round"/>
<path d="M576 8L568 16" stroke="white" stroke-width="2" stroke-linecap="round" stroke-linejoin="round"/>
<circle cx="630" cy="15" r="2" fill="white"/>
<path d="M635 8V18C635 19.1046 634.105 20 633 20H623C621.895 20 621 19.1046 621 18V8C621 6.89543 621.895 6 623 6H624H632H633C634.105 6 635 6.89543 635 8Z" stroke="white" stroke-width="2"/>
<rect x="630" y="3" width="2" height="6" rx="1" fill="white"/>
<rect x="624" y="3" width="2" height="6" rx="1" fill="white"/>
<path d="M677 7H691" stroke="white" stroke-width="2" stroke-linecap="round" stroke-linejoin="round"/>
<path d="M679.5 12H688.5" stroke="white" stroke-width="2" stroke-linecap="round" stroke-linejoin="round"/>
<path d="M682 17H686" stroke="white" stroke-width="2" stroke-linecap="round" stroke-linejoin="round"/>
<path d="M732.484 12.3082C732.394 12.197 732.313 12.0937 732.24 12C732.313 11.9063 732.394 11.803 732.484 11.6918C732.918 11.1563 733.544 10.4444 734.313 9.73557C735.888 8.28506 737.9 7 740 7C742.1 7 744.112 8.28506 745.687 9.73557C746.456 10.4444 747.082 11.1563 747.516 11.6918C747.606 11.803 747.687 11.9063 747.76 12C747.687 12.0937 747.606 12.197 747.516 12.3082C747.082 12.8437 746.456 13.5556 745.687 14.2644C744.112 15.7149 742.1 17 740 17C737.9 17 735.888 15.7149 734.313 14.2644C733.544 13.5556 732.918 12.8437 732.484 12.3082Z" stroke="white" stroke-width="2"/>
<circle cx="740" cy="12" r="2" fill="white"/>
<path d="M796 8H804" stroke="white" stroke-width="2" stroke-linecap="round" stroke-linejoin="round"/>
<path d="M788 8H792" stroke="white" stroke-width="2" stroke-linecap="round" stroke-linejoin="round"/>
<path d="M792 5V11" stroke="white" stroke-width="2" stroke-linecap="round" stroke-linejoin="round"/>
<path d="M800 13V19" stroke="white" stroke-width="2" stroke-linecap="round" stroke-linejoin="round"/>
<path d="M800 16H804" stroke="white" stroke-width="2" stroke-linecap="round" stroke-linejoin="round"/>
<path d="M788 16H796" stroke="white" stroke-width="2" stroke-linecap="round" stroke-linejoin="round"/>
<path d="M846 8H858V19C858 19.5523 857.552 20 857 20H847C846.448 20 846 19.5523 846 19V8Z" stroke="white" stroke-width="2"/>
<path d="M850 12V16" stroke="white" stroke-width="2" stroke-linecap="round" stroke-linejoin="round"/>
<path d="M854 12V16" stroke="white" stroke-width="2" stroke-linecap="round" stroke-linejoin="round"/>
<path d="M849 4H855C855.552 4 856 4.44772 856 5V8H848V5C848 4.44772 848.448 4 849 4Z" stroke="white" stroke-width="2"/>
<rect x="843" y="7" width="18" height="2" rx="1" fill="white"/>
<path d="M902 18.5858V5C902 4.44772 902.448 4 903 4H913C913.552 4 914 4.44772 914 5V18.5858C914 19.4767 912.923 19.9229 912.293 19.2929L908.707 15.7071C908.317 15.3166 907.683 15.3166 907.293 15.7071L903.707 19.2929C903.077 19.9229 902 19.4767 902 18.5858Z" stroke="white" stroke-width="2" stroke-linecap="round" stroke-linejoin="round"/>
<path d="M956 20C956 14 960 9 966 9" stroke="white" stroke-width="2" stroke-linecap="round"/>
<path d="M956 20C956 18 959 13 966 13" stroke="white" stroke-width="2" stroke-linecap="round"/>
<path d="M966 9V5.20711C966 4.76165 966.539 4.53857 966.854 4.85355L972.646 10.6464C972.842 10.8417 972.842 11.1583 972.646 11.3536L966.854 17.1464C966.539 17.4614 966 17.2383 966 16.7929V13" stroke="white" stroke-width="2" stroke-linecap="round" stroke-linejoin="round"/>
<path d="M1026.46 10H1019.54C1018.69 10 1018 10.6888 1018 11.5385V18.4615C1018 19.3112 1018.69 20 1019.54 20H1026.46C1027.31 20 1028 19.3112 1028 18.4615V11.5385C1028 10.6888 1027.31 10 1026.46 10Z" stroke="white" stroke-width="2" stroke-linecap="round" stroke-linejoin="round"/>
<path d="M1014.31 14H1013.54C1013.13 14 1012.74 13.8379 1012.45 13.5494C1012.16 13.2609 1012 12.8696 1012 12.4615V5.53846C1012 5.13044 1012.16 4.73912 1012.45 4.4506C1012.74 4.16209 1013.13 4 1013.54 4H1020.46C1020.87 4 1021.26 4.16209 1021.55 4.4506C1021.84 4.73912 1022 5.13044 1022 5.53846V6.30769" stroke="white" stroke-width="2" stroke-linecap="round" stroke-linejoin="round"/>
<path d="M1078.33 17.6668C1078.33 18.2191 1078.78 18.6668 1079.33 18.6668C1079.89 18.6668 1080.33 18.2191 1080.33 17.6668H1078.33ZM1071.67 17.6668C1071.67 18.2191 1072.11 18.6668 1072.67 18.6668C1073.22 18.6668 1073.67 18.2191 1073.67 17.6668H1071.67ZM1076 15.3335C1077.29 15.3335 1078.33 16.3782 1078.33 17.6668H1080.33C1080.33 15.2736 1078.39 13.3335 1076 13.3335V15.3335ZM1076 13.3335C1073.61 13.3335 1071.67 15.2736 1071.67 17.6668H1073.67C1073.67 16.3782 1074.71 15.3335 1076 15.3335V13.3335Z" fill="white"/>
<circle cx="1076" cy="11" r="3" stroke="white" stroke-width="2"/>
<path d="M1084.67 15.5007V15.5007C1084.67 14.5802 1083.92 13.834 1083 13.834V13.834C1082.08 13.834 1081.33 14.5802 1081.33 15.5007V15.5007" stroke="white" stroke-linecap="round"/>
<circle cx="1083" cy="12.167" r="1.5" stroke="white"/>
<path d="M1070.67 15.5007V15.5007C1070.67 14.5802 1069.92 13.834 1069 13.834V13.834C1068.08 13.834 1067.33 14.5802 1067.33 15.5007V15.5007" stroke="white" stroke-linecap="round"/>
<circle cx="1069" cy="12.167" r="1.5" stroke="white"/>
<path fill-rule="evenodd" clip-rule="evenodd" d="M1132.65 3.24074C1132.28 2.91975 1131.72 2.91975 1131.35 3.24074L1124.35 9.24074C1124.03 9.51308 1123.92 9.95446 1124.06 10.3469C1124.21 10.7394 1124.58 11 1125 11H1139C1139.42 11 1139.79 10.7394 1139.94 10.3469C1140.08 9.95446 1139.97 9.51308 1139.65 9.24074L1132.65 3.24074ZM1132 5.31708L1136.3 9H1127.7L1132 5.31708ZM1139.65 14.7593L1132.65 20.7593C1132.28 21.0802 1131.72 21.0802 1131.35 20.7593L1124.35 14.7593C1124.03 14.4869 1123.92 14.0455 1124.06 13.6531C1124.21 13.2606 1124.58 13 1125 13H1139C1139.42 13 1139.79 13.2606 1139.94 13.6531C1140.08 14.0455 1139.97 14.4869 1139.65 14.7593ZM1136.3 15H1127.7L1132 18.6829L1136.3 15Z" fill="white"/>
<path fill-rule="evenodd" clip-rule="evenodd" d="M1178 12C1178 11.4477 1178.45 11 1179 11H1197C1197.55 11 1198 11.4477 1198 12C1198 12.5523 1197.55 13 1197 13H1179C1178.45 13 1178 12.5523 1178 12Z" fill="white"/>
<path fill-rule="evenodd" clip-rule="evenodd" d="M1183.71 7.29289C1184.1 7.68342 1184.1 8.31658 1183.71 8.70711L1180.41 12L1183.71 15.2929C1184.1 15.6834 1184.1 16.3166 1183.71 16.7071C1183.32 17.0976 1182.68 17.0976 1182.29 16.7071L1178.29 12.7071C1177.9 12.3166 1177.9 11.6834 1178.29 11.2929L1182.29 7.29289C1182.68 6.90237 1183.32 6.90237 1183.71 7.29289Z" fill="white"/>
<defs>
<clipPath id="clip0">
<rect width="24" height="24" fill="white" transform="translate(392)"/>
</clipPath>
</defs>
</svg>
