<svg width="1200" height="25" viewBox="0 0 1200 25" fill="none" xmlns="http://www.w3.org/2000/svg">
<path d="M10 14V14C11.259 13.3705 12.741 13.3705 14 14V14" stroke="white" stroke-width="2"/>
<rect x="14" y="11" width="7" height="7" rx="3.5" stroke="white" stroke-width="2"/>
<rect x="3" y="11" width="7" height="7" rx="3.5" stroke="white" stroke-width="2"/>
<path d="M21 15L21.8683 6.3166C21.9388 5.61168 21.3853 5 20.6768 5V5C20.2435 5 19.8278 5.17216 19.5214 5.47859L19 6" stroke="white" stroke-width="2" stroke-linecap="round" stroke-linejoin="round"/>
<path d="M3 15L2.13166 6.3166C2.06117 5.61168 2.61473 5 3.32317 5V5C3.75654 5 4.17216 5.17216 4.47859 5.47859L5 6" stroke="white" stroke-width="2" stroke-linecap="round" stroke-linejoin="round"/>
<path d="M76 12C76 16.4183 72.4183 20 68 20C63.5817 20 60 16.4183 60 12C60 7.58173 63.5817 4.00002 68 4.00002C72.4183 4.00002 76 7.58173 76 12Z" stroke="white" stroke-width="2" stroke-linecap="round" stroke-linejoin="round"/>
<path d="M65.7641 3.54541C65.7641 3.54541 67.2368 5.67268 66.7459 6.70905C66.255 7.74541 65.3278 7.58177 65.0005 7.79996C64.6732 8.01814 62.6005 8.18177 63.2005 8.83632C63.8005 9.49086 64.9459 9.54541 65.7096 10.2545C66.4187 10.9636 66.3096 11.2909 67.0187 11.2909C67.7278 11.2909 68.1096 10.5818 68.7641 11.2909C69.4732 12 68.3823 13.7454 67.5096 14.6181C66.6368 15.4909 67.4005 16.0363 67.0187 16.4181C66.6368 16.8 66.0368 17.1818 66.0368 17.9454C66.0368 18.709 64.2914 19.4727 64.0732 18.1636C63.855 16.909 64.455 15 63.9096 14.4545C63.3641 13.909 62.3278 12.4909 62.7641 11.2363C63.2005 9.98177 60.3096 7.90905 60.3096 7.90905" fill="white"/>
<path d="M76.4546 9.81835C76.4546 9.81835 74.1092 9.87289 73.4001 9.43653C72.6364 9.00017 70.7274 9.36376 71.0001 11.0001C71.2728 12.6365 72.0183 12.5183 73.0001 13.5002C73.9819 14.482 73.4001 15.3274 73.891 15.8183C74.3819 16.3093 74.7092 16.8547 74.2183 18.0547" fill="white"/>
<path d="M71.5452 4.03662C71.5452 4.03662 69.0633 6.12752 69.4997 7.00024C69.8815 7.87297 70.8906 8.38206 71.5451 8.00024C72.1997 7.61843 72.2542 6.0548 72.9633 6.43662C73.6724 6.87298 74.927 6.6548 74.927 6.6548" fill="white"/>
<path d="M132.583 9L124.414 12.7134C124.151 12.833 123.849 12.833 123.586 12.7134L115.417 9L123.586 5.28655C123.849 5.16704 124.151 5.16704 124.414 5.28655L132.583 9Z" stroke="white" stroke-width="2"/>
<path d="M117 10V15.6287C117 15.8278 117.118 16.0079 117.301 16.0872L123.203 18.6533C123.711 18.8744 124.289 18.8744 124.797 18.6533L130.699 16.0872C130.882 16.0079 131 15.8278 131 15.6287V10" stroke="white" stroke-width="2"/>
<path d="M179.393 12.0355L171.5 6H188.5L180.607 12.0355C180.249 12.3097 179.751 12.3097 179.393 12.0355Z" fill="white"/>
<path d="M188 6V16C188 16.5523 187.552 17 187 17H173C172.448 17 172 16.5523 172 16V6L180 6H188Z" stroke="white" stroke-width="2" stroke-linecap="round" stroke-linejoin="round"/>
<path d="M232 10H235" stroke="white" stroke-width="2" stroke-linecap="round" stroke-linejoin="round"/>
<path d="M232 14H233" stroke="white" stroke-width="2" stroke-linecap="round" stroke-linejoin="round"/>
<path d="M239 18V4H228V18C228 19.1046 228.895 20 230 20H241" stroke="white" stroke-width="2" stroke-linecap="round" stroke-linejoin="round"/>
<path d="M239 18C239 19.1046 239.895 20 241 20C242.105 20 243 19.1046 243 18V10H239" stroke="white" stroke-width="2" stroke-linecap="round" stroke-linejoin="round"/>
<path d="M297.293 17.7071L298.586 19H285.414L286.707 17.7071L287 17.4142V17V12C287 9.26874 288.414 7.20184 290.731 6.65306L291.5 6.47075V5.68V5C291.5 4.72228 291.722 4.5 292 4.5C292.278 4.5 292.5 4.72228 292.5 5V5.68V6.47011L293.269 6.65288C295.576 7.20153 297 9.27963 297 12V17V17.4142L297.293 17.7071Z" stroke="white" stroke-width="2"/>
<path d="M340 16H346" stroke="white" stroke-width="2" stroke-linecap="round" stroke-linejoin="round"/>
<path d="M345 12H351" stroke="white" stroke-width="2" stroke-linecap="round" stroke-linejoin="round"/>
<path d="M350 8H356" stroke="white" stroke-width="2" stroke-linecap="round" stroke-linejoin="round"/>
<path d="M398 5H410C410.552 5 411 5.44772 411 6V14C411 14.5523 410.552 15 410 15H400.414C399.884 15 399.375 15.2107 399 15.5858L397 17.5858V16V6C397 5.44772 397.448 5 398 5Z" stroke="white" stroke-width="2" stroke-linejoin="round"/>
<rect x="401" y="9" width="6" height="2" rx="1" fill="white"/>
<path fill-rule="evenodd" clip-rule="evenodd" d="M460 22C459.448 22 459 21.5523 459 21L459 3C459 2.44772 459.448 2 460 2C460.552 2 461 2.44772 461 3L461 21C461 21.5523 460.552 22 460 22Z" fill="white"/>
<path fill-rule="evenodd" clip-rule="evenodd" d="M455.293 16.2929C455.683 15.9024 456.317 15.9024 456.707 16.2929L460 19.5858L463.293 16.2929C463.683 15.9024 464.317 15.9024 464.707 16.2929C465.098 16.6834 465.098 17.3166 464.707 17.7071L460.707 21.7071C460.317 22.0976 459.683 22.0976 459.293 21.7071L455.293 17.7071C454.902 17.3166 454.902 16.6834 455.293 16.2929Z" fill="white"/>
<path fill-rule="evenodd" clip-rule="evenodd" d="M524.571 11.2857V9.85714H526V14.1429H524.571V12.7143H523.106C522.966 14.1095 522.416 15.4319 521.525 16.515L522.551 17.5414L523.561 16.5307L524.571 17.5407L521.541 20.5714L520.531 19.5614L521.541 18.5514L520.514 17.525C519.432 18.4158 518.109 18.9663 516.714 19.1071V20.5714H518.143V22H513.857V20.5714H515.286V19.1071C513.89 18.9664 512.568 18.4159 511.485 17.525L510.459 18.5514L511.469 19.5614L510.459 20.5714L507.429 17.5407L508.439 16.5307L509.449 17.5414L510.475 16.515C509.584 15.432 509.034 14.1096 508.893 12.7143H507.429V14.1429H506V9.85714H507.429V11.2857H508.894C509.034 9.89077 509.585 8.56863 510.475 7.48571L509.449 6.45857L508.439 7.46929L507.429 6.45929L510.459 3.42857L511.468 4.43857L510.458 5.44857L511.486 6.475C512.568 5.58418 513.891 5.03369 515.286 4.89286V3.42857H513.857V2H518.143V3.42857H516.714V4.89286C518.11 5.03355 519.432 5.58405 520.515 6.475L521.541 5.44857L520.531 4.43857L521.541 3.42857L524.571 6.45929L523.561 7.46929L522.551 6.45857L521.525 7.485C522.416 8.56803 522.966 9.89044 523.107 11.2857H524.571ZM512.825 16.7513C513.765 17.3791 514.87 17.7143 516 17.7143C517.515 17.7124 518.967 17.1097 520.039 16.0385C521.11 14.9673 521.712 13.5149 521.714 12C521.714 10.8698 521.379 9.76502 520.751 8.82531C520.123 7.8856 519.231 7.15319 518.187 6.72069C517.143 6.28819 515.994 6.17503 514.885 6.39551C513.777 6.616 512.759 7.16023 511.959 7.95939C511.16 8.75855 510.616 9.77674 510.396 10.8852C510.175 11.9937 510.288 13.1426 510.721 14.1868C511.153 15.2309 511.886 16.1234 512.825 16.7513ZM518 12C519.105 12 520 11.1046 520 10C520 8.89543 519.105 8 518 8C516.895 8 516 8.89543 516 10C516 11.1046 516.895 12 518 12ZM514.5 11.75C514.5 12.7165 513.716 13.5 512.75 13.5C511.784 13.5 511 12.7165 511 11.75C511 10.7835 511.784 10 512.75 10C513.716 10 514.5 10.7835 514.5 11.75ZM518.5 15C518.5 15.8284 517.828 16.5 517 16.5C516.172 16.5 515.5 15.8284 515.5 15C515.5 14.1716 516.172 13.5 517 13.5C517.828 13.5 518.5 14.1716 518.5 15Z" fill="white"/>
<circle cx="570.5" cy="5" r="2" fill="white"/>
<path d="M571 9L572 14.5H577L580 20" stroke="white" stroke-width="2" stroke-linecap="round" stroke-linejoin="round"/>
<path d="M571.5 11H575.5" stroke="white" stroke-width="2" stroke-linecap="round" stroke-linejoin="round"/>
<path fill-rule="evenodd" clip-rule="evenodd" d="M569.001 10.083C566.163 10.5587 564 13.0269 564 16.0002C564 19.3139 566.686 22.0002 570 22.0002C572.973 22.0002 575.441 19.8379 575.917 17.0002H573.874C573.43 18.7254 571.864 20.0002 570 20.0002C567.791 20.0002 566 18.2093 566 16.0002C566 14.0344 567.418 12.3999 569.287 12.0636L569.001 10.083Z" fill="white"/>
<path d="M625 6L631 12L625 18" stroke="white" stroke-width="2" stroke-linecap="round" stroke-linejoin="round"/>
<rect x="678" y="20" width="16" height="12" rx="3" transform="rotate(-90 678 20)" stroke="white" stroke-width="2"/>
<rect x="675.5" y="9.5" width="1" height="5" rx="0.5" transform="rotate(-90 675.5 9.5)" stroke="white"/>
<rect x="675.5" y="14.5" width="1" height="5" rx="0.5" transform="rotate(-90 675.5 14.5)" stroke="white"/>
<path d="M683 13H684" stroke="white" stroke-width="2" stroke-linecap="round" stroke-linejoin="round"/>
<path d="M683 17H686" stroke="white" stroke-width="2" stroke-linecap="round" stroke-linejoin="round"/>
<path d="M733 2L747 22" stroke="white" stroke-width="2" stroke-linecap="round" stroke-linejoin="round"/>
<path fill-rule="evenodd" clip-rule="evenodd" d="M734.882 3.00343C733.832 3.06461 733 3.93511 733 5V18.5858C733 20.3676 735.154 21.2599 736.414 20L740 16.4142L743.586 20C744.519 20.9332 745.943 20.6856 746.619 19.7704L745 17.458V18.5858L741.414 15C740.633 14.219 739.367 14.219 738.586 15L735 18.5858V5H736.279L734.882 3.00343ZM745 13.9704V5H738.721L737.321 3H745C746.105 3 747 3.89543 747 5V16.8276L745 13.9704Z" fill="white"/>
<path d="M804 6V18C804 19.1046 803.105 20 802 20H792C790.895 20 790 19.1046 790 18V6C790 4.89543 790.895 4 792 4H793H801H802C803.105 4 804 4.89543 804 6Z" stroke="white" stroke-width="2"/>
<rect x="787" y="8" width="6" height="2" rx="1" fill="white"/>
<rect x="787" y="14" width="6" height="2" rx="1" fill="white"/>
<rect x="795" y="7" width="6" height="2" rx="1" fill="white"/>
<rect x="795" y="11" width="6" height="2" rx="1" fill="white"/>
<rect x="795" y="15" width="6" height="2" rx="1" fill="white"/>
<circle cx="852" cy="12" r="7" stroke="white" stroke-width="2"/>
<path d="M852 12V8" stroke="white" stroke-width="2" stroke-linecap="round"/>
<path d="M853.5 14.5L852 12" stroke="white" stroke-width="2" stroke-linecap="round"/>
<path d="M914 9L908 15L902 9" stroke="white" stroke-width="2" stroke-linecap="round" stroke-linejoin="round"/>
<path d="M969.657 12L958.344 12" stroke="white" stroke-width="2" stroke-linecap="round" stroke-linejoin="round"/>
<path d="M1026 10C1026 10.4928 1025.84 11.1673 1025.5 11.9981C1025.16 12.814 1024.69 13.7105 1024.14 14.6258C1023.05 16.4561 1021.69 18.2873 1020.68 19.5837C1020.32 20.0355 1019.68 20.0355 1019.32 19.5837C1018.31 18.2873 1016.95 16.4561 1015.86 14.6258C1015.31 13.7105 1014.84 12.814 1014.5 11.9981C1014.16 11.1673 1014 10.4928 1014 10C1014 6.68629 1016.69 4 1020 4C1023.31 4 1026 6.68629 1026 10Z" stroke="white" stroke-width="2"/>
<circle cx="1020" cy="10" r="2" fill="white"/>
<path fill-rule="evenodd" clip-rule="evenodd" d="M1073.5 2.5C1072.95 2.5 1072.5 2.94772 1072.5 3.5C1072.5 4.05228 1072.95 4.5 1073.5 4.5H1081.5V15.5C1081.5 16.0523 1081.95 16.5 1082.5 16.5C1083.05 16.5 1083.5 16.0523 1083.5 15.5V4.5C1083.5 3.39543 1082.6 2.5 1081.5 2.5H1073.5ZM1070 6C1068.9 6 1068 6.89543 1068 8V18.6955C1068 20.4452 1070.09 21.3514 1071.37 20.1562L1074.16 17.5437L1076.58 19.9825C1077.84 21.2495 1080 20.3587 1080 18.5734V8C1080 6.89543 1079.1 6 1078 6H1070ZM1078 8V18.5734L1075.58 16.1346C1074.82 15.3672 1073.58 15.3443 1072.79 16.083L1070 18.6955V8H1078Z" fill="white"/>
<path d="M1131.52 5.5459C1131.67 5.07607 1132.33 5.07607 1132.48 5.54591L1133.56 9.05432C1133.76 9.68283 1134.34 10.1115 1135 10.1115H1138.52C1139 10.1115 1139.21 10.7184 1138.83 11.0088L1135.89 13.2534C1135.39 13.635 1135.18 14.2876 1135.36 14.8882L1136.48 18.5054C1136.63 18.9705 1136.09 19.3459 1135.7 19.0504L1132.91 16.9185C1132.37 16.5079 1131.63 16.5079 1131.09 16.9185L1128.3 19.0504C1127.91 19.3459 1127.37 18.9705 1127.52 18.5054L1128.64 14.8882C1128.82 14.2876 1128.61 13.635 1128.11 13.2534L1125.17 11.0088C1124.79 10.7184 1125 10.1115 1125.48 10.1115H1129C1129.66 10.1115 1130.24 9.68283 1130.44 9.05432L1131.52 5.5459Z" fill="white"/>
<path d="M1194 7.75V7C1194 5.34315 1192.66 4 1191 4H1190.25H1182.75H1182C1180.34 4 1179 5.34315 1179 7V16C1179 17.6569 1180.34 19 1182 19H1182.75" stroke="white" stroke-width="2" stroke-linecap="round"/>
<circle cx="1192" cy="17" r="5" stroke="white" stroke-width="2"/>
<path d="M1192 17.0002V14.3335" stroke="white" stroke-width="2" stroke-linecap="round"/>
<path d="M1193 18.3333L1192 17" stroke="white" stroke-width="2" stroke-linecap="round"/>
<rect x="1188" y="1" width="2" height="6" rx="1" fill="white"/>
<rect x="1183" y="1" width="2" height="6" rx="1" fill="white"/>
</svg>
