<svg width="24" height="24" viewBox="0 0 24 24" fill="none" xmlns="http://www.w3.org/2000/svg">
<path fill-rule="evenodd" clip-rule="evenodd" d="M20.5714 11.2857V9.85714H22V14.1429H20.5714V12.7143H19.1064C18.9659 14.1095 18.4156 15.4319 17.525 16.515L18.5514 17.5414L19.5614 16.5307L20.5714 17.5407L17.5414 20.5714L16.5314 19.5614L17.5414 18.5514L16.5143 17.525C15.4315 18.4158 14.1093 18.9663 12.7143 19.1071V20.5714H14.1429V22H9.85714V20.5714H11.2857V19.1071C9.89042 18.9664 8.56798 18.4159 7.485 17.525L6.45857 18.5514L7.46857 19.5614L6.45857 20.5714L3.42857 17.5407L4.43857 16.5307L5.44857 17.5414L6.475 16.515C5.58413 15.432 5.03364 14.1096 4.89286 12.7143H3.42857V14.1429H2V9.85714H3.42857V11.2857H4.89357C5.03428 9.89077 5.58451 8.56863 6.475 7.48571L5.44857 6.45857L4.43857 7.46929L3.42857 6.45929L6.45857 3.42857L7.46786 4.43857L6.45786 5.44857L7.48571 6.475C8.5685 5.58418 9.89067 5.03369 11.2857 4.89286V3.42857H9.85714V2H14.1429V3.42857H12.7143V4.89286C14.1096 5.03355 15.432 5.58405 16.515 6.475L17.5414 5.44857L16.5314 4.43857L17.5414 3.42857L20.5714 6.45929L19.5614 7.46929L18.5514 6.45857L17.525 7.485C18.4159 8.56803 18.9664 9.89044 19.1071 11.2857H20.5714ZM8.82531 16.7513C9.76502 17.3791 10.8698 17.7143 12 17.7143C13.5149 17.7124 14.9673 17.1097 16.0385 16.0385C17.1097 14.9673 17.7124 13.5149 17.7143 12C17.7143 10.8698 17.3791 9.76502 16.7513 8.82531C16.1234 7.8856 15.2309 7.15319 14.1868 6.72069C13.1426 6.28819 11.9937 6.17503 10.8852 6.39551C9.77674 6.616 8.75855 7.16023 7.95939 7.95939C7.16023 8.75855 6.616 9.77674 6.39551 10.8852C6.17503 11.9937 6.28819 13.1426 6.72069 14.1868C7.15319 15.2309 7.8856 16.1234 8.82531 16.7513ZM14 12C15.1046 12 16 11.1046 16 10C16 8.89543 15.1046 8 14 8C12.8954 8 12 8.89543 12 10C12 11.1046 12.8954 12 14 12ZM10.5 11.75C10.5 12.7165 9.7165 13.5 8.75 13.5C7.7835 13.5 7 12.7165 7 11.75C7 10.7835 7.7835 10 8.75 10C9.7165 10 10.5 10.7835 10.5 11.75ZM14.5 15C14.5 15.8284 13.8284 16.5 13 16.5C12.1716 16.5 11.5 15.8284 11.5 15C11.5 14.1716 12.1716 13.5 13 13.5C13.8284 13.5 14.5 14.1716 14.5 15Z" fill="#14499E"/>
</svg>
