<svg width="125" height="251" viewBox="0 0 125 251" fill="none" xmlns="http://www.w3.org/2000/svg">
<path d="M-0.459774 162.258C-10.2249 162.258 -19.4039 158.436 -26.3087 151.508C-33.2135 144.603 -37.0234 135.377 -37.0234 125.553C-37.0234 123.678 -36.8828 121.814 -36.6131 120.008C-35.4291 112.236 -31.8771 105.179 -26.3322 99.6222C-19.4274 92.6822 -10.2367 88.8723 -0.459774 88.8723C9.30539 88.8723 18.4844 92.694 25.3892 99.6222C32.2822 106.55 36.0805 115.753 36.0805 125.565C36.0805 130.383 35.1661 135.049 33.3607 139.445C31.5554 143.958 28.8474 148.038 25.354 151.531C18.4609 158.436 9.29366 162.258 -0.459774 162.258ZM-0.459774 103.338C-6.35638 103.338 -11.8896 105.636 -16.0629 109.821C-19.4157 113.186 -21.5609 117.453 -22.276 122.154C-22.4402 123.244 -22.5222 124.381 -22.5222 125.53C-22.5222 131.497 -20.2245 137.077 -16.0512 141.25C-11.8778 145.447 -6.34466 147.745 -0.459774 147.745C5.40166 147.745 10.9349 145.435 15.0965 141.262C17.2066 139.152 18.8244 136.702 19.9263 133.959C21.0283 131.262 21.5792 128.449 21.5792 125.53C21.5792 119.586 19.2816 114.006 15.1082 109.821C10.9466 105.648 5.41339 103.338 -0.459774 103.338Z" fill="#F5C832"/>
<path opacity="0.2" d="M-0.469498 0.0600586L-63.9137 63.4808L-79.5755 79.1426L-125.939 125.53L-83.4909 167.979V168.002L-0.469498 251L125 125.542L-0.469498 0.0600586ZM48.1453 159.749C47.4888 160.664 46.8441 161.59 46.1407 162.457C35.2619 176.302 18.4278 185.199 -0.469498 185.199C-0.492943 185.199 -0.492928 185.199 -0.492928 185.199C-30.5738 185.199 -55.4615 162.656 -59.3066 133.396C-59.4707 132.236 -59.5762 131.052 -59.67 129.868C-59.7872 128.437 -59.8341 127.019 -59.8341 125.542C-59.8341 124.967 -59.8342 124.381 -59.8107 123.807C-59.8107 123.443 -59.7872 123.08 -59.7638 122.717C-59.7404 122.283 -59.7169 121.849 -59.6935 121.439C-59.6466 120.759 -59.5997 120.091 -59.5294 119.434C-59.4121 118.25 -59.2597 117.066 -59.0722 115.882C-58.9549 115.108 -58.8025 114.335 -58.6384 113.561C-58.5915 113.291 -58.5446 113.01 -58.4743 112.717C-58.404 112.33 -58.3102 111.943 -58.2047 111.556C-58.0874 111.099 -57.9819 110.642 -57.8412 110.185C-57.724 109.681 -57.5716 109.165 -57.431 108.684C-56.4345 105.226 -55.1333 101.92 -53.539 98.7784C-53.1521 98.0047 -52.7653 97.2545 -52.3315 96.5042C-51.8274 95.5664 -51.2882 94.6403 -50.7137 93.7493C-50.5262 93.4328 -50.3269 93.1397 -50.1042 92.8349C-49.6235 92.0612 -49.1077 91.311 -48.5567 90.5841C-48.0292 89.8339 -47.4665 89.0836 -46.8921 88.3802C-46.2825 87.5831 -45.6377 86.8328 -44.9813 86.0826C-44.1607 85.1213 -43.2932 84.1952 -42.3905 83.3042C-41.6871 82.6243 -40.9603 81.9326 -40.21 81.2762C-39.5301 80.6431 -38.8619 80.0453 -38.1351 79.4591C-38.0178 79.3653 -37.8655 79.2364 -37.7482 79.1426C-37.1152 78.6385 -36.4705 78.1227 -35.814 77.6421C-35.263 77.2318 -34.7003 76.8215 -34.1259 76.4346C-33.4928 76.0009 -32.8715 75.5671 -32.2385 75.1803C-31.6054 74.77 -30.9607 74.3831 -30.3042 73.9963C-28.3699 72.8591 -26.3653 71.851 -24.3138 70.9249C-17.5263 67.9004 -10.0822 66.1654 -2.2748 65.9192C-1.70037 65.8723 -1.11423 65.8723 -0.481194 65.8723C-0.481194 65.8723 -0.481209 65.8723 -0.457756 65.8723C10.4445 65.8723 20.6552 68.8148 29.4122 73.9963C30.432 74.5707 31.4402 75.2037 32.4366 75.8836C33.9606 76.9035 35.4377 77.982 36.8562 79.1426C40.2089 81.874 43.2568 84.9689 45.9414 88.3451C54.0653 98.544 58.8952 111.463 58.8952 125.53C58.8717 138.273 54.9094 150.089 48.1453 159.749Z" fill="#1B213D"/>
</svg>
