<svg width="252" height="253" viewBox="0 0 252 253" fill="none" xmlns="http://www.w3.org/2000/svg">
<path d="M126.012 163.439C116.206 163.439 106.988 159.602 100.054 152.647C93.12 145.714 89.2939 136.451 89.2939 126.588C89.2939 124.705 89.4352 122.834 89.706 121.021C90.895 113.218 94.462 106.132 100.03 100.554C106.964 93.5859 116.194 89.7607 126.012 89.7607C135.818 89.7607 145.036 93.5976 151.97 100.554C158.892 107.509 162.706 116.749 162.706 126.6C162.706 131.437 161.788 136.122 159.975 140.535C158.162 145.067 155.443 149.163 151.935 152.67C145.013 159.602 135.807 163.439 126.012 163.439ZM126.012 104.285C120.09 104.285 114.534 106.591 110.343 110.793C106.976 114.171 104.822 118.455 104.104 123.175C103.939 124.27 103.856 125.411 103.856 126.565C103.856 132.556 106.164 138.158 110.355 142.348C114.546 146.562 120.102 148.868 126.012 148.868C131.898 148.868 137.455 146.55 141.634 142.36C143.753 140.241 145.378 137.781 146.484 135.027C147.591 132.32 148.144 129.495 148.144 126.565C148.144 120.597 145.837 114.995 141.646 110.793C137.466 106.603 131.91 104.285 126.012 104.285Z" fill="#F5C832"/>
<path d="M126 0.593018L62.2878 64.2674L46.5598 79.9918L0 126.565L42.6279 169.183V169.207L126 252.536L252 126.576L126 0.593018ZM174.82 160.921C174.161 161.839 173.513 162.768 172.807 163.639C161.882 177.54 144.977 186.473 126 186.473C125.976 186.473 125.976 186.473 125.976 186.473C95.7685 186.473 70.7757 163.84 66.9143 134.462C66.7495 133.297 66.6436 132.108 66.5494 130.92C66.4317 129.484 66.3846 128.059 66.3846 126.576C66.3846 126 66.3846 125.411 66.4081 124.835C66.4081 124.47 66.4317 124.105 66.4552 123.74C66.4787 123.304 66.5023 122.869 66.5258 122.457C66.5729 121.774 66.62 121.104 66.6906 120.444C66.8084 119.256 66.9614 118.067 67.1498 116.878C67.2675 116.101 67.4205 115.325 67.5853 114.548C67.6324 114.277 67.6795 113.995 67.7502 113.7C67.8208 113.312 67.915 112.924 68.0209 112.535C68.1387 112.076 68.2446 111.617 68.3859 111.158C68.5036 110.652 68.6566 110.134 68.7979 109.652C69.7986 106.179 71.1053 102.86 72.7063 99.7061C73.0948 98.9293 73.4833 98.1761 73.9189 97.4228C74.4251 96.4812 74.9667 95.5514 75.5435 94.6569C75.7319 94.3391 75.932 94.0449 76.1556 93.7389C76.6383 92.9621 77.1563 92.2088 77.7096 91.4791C78.2394 90.7258 78.8044 89.9725 79.3813 89.2663C79.9935 88.466 80.6409 87.7127 81.3002 86.9595C82.1243 85.9944 82.9954 85.0645 83.9019 84.17C84.6082 83.4874 85.3381 82.793 86.0916 82.1339C86.7744 81.4983 87.4454 80.898 88.1753 80.3096C88.293 80.2154 88.446 80.086 88.5638 79.9918C89.1995 79.4857 89.847 78.9678 90.5062 78.4852C91.0595 78.0733 91.6246 77.6614 92.2014 77.273C92.8372 76.8375 93.4611 76.402 94.0968 76.0136C94.7325 75.6017 95.38 75.2133 96.0393 74.8249C97.9817 73.6832 99.9948 72.671 102.055 71.7412C108.871 68.7046 116.347 66.9627 124.187 66.7155C124.764 66.6684 125.353 66.6684 125.988 66.6684C125.988 66.6684 125.988 66.6684 126.012 66.6684C136.96 66.6684 147.214 69.6226 156.008 74.8249C157.032 75.4016 158.044 76.0371 159.045 76.7198C160.576 77.7438 162.059 78.8266 163.483 79.9918C166.85 82.7341 169.911 85.8413 172.607 89.231C180.765 99.4707 185.615 112.441 185.615 126.565C185.592 139.358 181.613 151.222 174.82 160.921Z" fill="#1B213D"/>
</svg>
