<svg width="110" height="112" viewBox="0 0 110 112" fill="none" xmlns="http://www.w3.org/2000/svg">
<path opacity="0.2" d="M31.6598 32.2397C37.6324 26.1632 45.8873 22.4 55 22.4C64.1127 22.4 72.3676 26.1632 78.3402 32.256C84.3128 38.3325 88.0033 46.7386 88.0033 56.0081C88.0033 65.294 84.3128 73.7001 78.324 79.7766C72.3514 85.8531 64.1127 89.6163 55 89.6163C45.8873 89.6163 37.6486 85.8531 31.676 79.7766C25.7034 73.7001 21.9968 65.294 21.9968 56.0081C21.9968 46.7223 25.6872 38.3162 31.6598 32.2397ZM0 55.9919C0 86.9283 24.6189 112 55 112C85.3811 112 110 86.9283 110 55.9919C110 25.0554 85.3811 0 55 0C24.6189 0 0 25.0717 0 55.9919Z" fill="#5C6873"/>
</svg>
