<svg width="445" height="511" viewBox="0 0 445 511" fill="none" xmlns="http://www.w3.org/2000/svg">
<path opacity="0.2" d="M-92.6987 -33.7913C-51.7047 -75.296 4.95374 -101 67.5001 -101C130.046 -101 186.705 -75.296 227.699 -33.68C268.693 7.82474 294.022 65.2415 294.022 128.556C294.022 191.981 268.693 249.398 227.588 290.903C186.594 332.407 130.046 358.111 67.5001 358.111C4.95374 358.111 -51.5935 332.407 -92.5875 290.903C-133.581 249.398 -159.022 191.981 -159.022 128.556C-159.022 65.1302 -133.693 7.71347 -92.6987 -33.7913ZM-310 128.444C-310 339.751 -141.025 511 67.5001 511C276.025 511 445 339.751 445 128.444C445 -82.8626 276.025 -254 67.5001 -254C-141.025 -254 -310 -82.7513 -310 128.444Z" fill="#5C6873"/>
</svg>
