<svg width="35px" height="42px" viewBox="0 0 35 42" version="1.1" xmlns="http://www.w3.org/2000/svg" xmlns:xlink="http://www.w3.org/1999/xlink">
    <g id="Page-1" stroke="none" stroke-width="1" fill="none" fill-rule="evenodd">
        <g id="how-to-(desktop)" transform="translate(-48.000000, -27.000000)" fill="#2F057E" fill-rule="nonzero">
            <path d="M65.7450395,31.4079981 C72.9551462,31.519234 78.6723752,37.5877737 78.6641726,44.8345905 L78.6641726,60.8402094 C78.6652663,61.2054909 78.5212957,61.5561282 78.2641637,61.8144224 C78.0070318,62.0727166 77.6579722,62.217338 77.2943344,62.2162394 C76.5377936,62.2162394 75.9244961,61.6001698 75.9244961,60.8402094 L75.9244961,44.7975119 C75.9244961,39.0873992 71.4499646,34.2795338 65.7614447,34.1435787 C60.3949891,34.0202022 55.8123987,38.0102079 55.1718569,43.3638039 C55.0967958,44.0636147 54.5109018,44.59543 53.8102212,44.5997591 C53.4176823,44.5990489 53.044191,44.4297133 52.7839862,44.1344788 C52.5237814,43.8392443 52.4017146,43.446308 52.4485856,43.0548152 C53.247584,36.3196515 58.9938296,31.2863192 65.7450395,31.4079981 Z M64.6910023,27.0203574 C74.1023613,26.5691659 82.1859848,33.6704416 82.9951582,43.1001335 C83.0273667,43.4835241 82.8978255,43.8628811 82.6381265,44.1456892 C82.3784275,44.4284974 82.0124409,44.5887623 81.6294213,44.5873995 C80.9258182,44.5906895 80.3355959,44.0549454 80.2677857,43.3514444 C79.6873819,36.4581536 74.4484423,30.8789613 67.6317268,29.8947132 C60.8150114,28.9104652 54.2238247,32.7815359 51.7341161,39.231541 C49.2444075,45.6815461 51.5148085,53.0041913 57.210209,56.8933927 C57.5438648,57.1263287 57.7573577,57.4960374 57.7930016,57.9026233 C57.8286455,58.3092092 57.6827617,58.7107087 57.394768,58.9986362 C56.920858,59.4664237 56.1836927,59.5320155 55.6353051,59.1551905 C49.4185049,54.8822913 46.6125201,47.0986949 48.6642469,39.8179856 C50.7159737,32.5372762 57.1670505,27.3859851 64.6910023,27.0203574 Z M66.6801386,55.9087484 L68.6200593,53.9600592 C71.8212348,57.1726694 72.0631148,62.3045698 69.1784191,65.8066221 C66.2937234,69.3086745 61.2299398,70.0306181 57.4890982,67.4731685 C57.1487765,67.2427544 56.9284018,66.8719569 56.8879575,66.4617029 C56.8475133,66.0514489 56.9912086,65.644435 57.2799313,65.3514456 C57.7510375,64.8811485 58.4890711,64.815326 59.0352929,65.1948912 C61.6059415,66.9482343 65.0823741,66.4501748 67.0625702,64.044844 C69.0427662,61.6395132 68.8771437,58.1159538 66.6801386,55.9087484 Z M65.5194673,37.3158635 C65.5200369,37.9576261 65.0737784,38.5123887 64.4490248,38.6465752 C61.3823173,39.2103504 59.250323,42.0311622 59.5337337,45.149928 C59.8171444,48.2686939 62.4223349,50.6551244 65.5399739,50.6518193 L65.7040264,50.6518193 L63.2432391,53.1237296 C59.2954287,52.057944 56.6045141,48.3933005 56.7565395,44.2897659 C56.9085649,40.1862312 59.8631919,36.7326356 63.8789425,35.9645526 C64.2817949,35.884512 64.6991695,35.9896815 65.0167172,36.2512477 C65.334265,36.5128138 65.5186908,36.9033512 65.5194673,37.3158635 Z" id="aroundsound-logo"></path>
        </g>
    </g>
</svg>